<?xml version="1.0" encoding="utf-8"?>
<!-- Generator: Adobe Illustrator 24.1.2, SVG Export Plug-In . SVG Version: 6.00 Build 0)  -->
<svg version="1.1" id="Слой_1" xmlns="http://www.w3.org/2000/svg" xmlns:xlink="http://www.w3.org/1999/xlink" x="0px" y="0px"
	 viewBox="0 0 665 270" style="enable-background:new 0 0 665 270;" xml:space="preserve">
<style type="text/css">
	.st0{fill:#FDD000;}
	.st1{fill:#3D3D3D;}
</style>
<g id="Logo">
	<rect id="back" x="43.5" y="36.03" class="st0" width="114.96" height="167.71"/>
	<path id="w" class="st1" d="M75.92,112.17l-9.74-59.61h17.07l3.73,27.64c0.4,2.96,0.72,5.89,0.96,8.77
		c0.24,2.88,0.56,5.85,0.96,8.89h0.36c0.4-3.04,0.8-6.04,1.2-9.01c0.4-2.96,0.92-5.85,1.56-8.65l3.73-19.71h12.86l3.84,19.71
		c0.64,2.96,1.2,5.89,1.68,8.77s0.92,5.85,1.32,8.89h0.48c0.4-3.04,0.7-6,0.9-8.89s0.46-5.81,0.78-8.77l3.36-27.64h16.34
		l-9.13,59.61H107.4l-3.25-19.35c-0.4-2.56-0.76-5.29-1.08-8.17c-0.32-2.88-0.68-6.05-1.08-9.49h-0.48
		c-0.24,2.56-0.52,5.21-0.84,7.93c-0.32,2.72-0.72,5.97-1.2,9.73l-3.12,19.35H75.92z"/>
	<path id="e" class="st1" d="M105.24,191.96c-4.65,0-8.99-0.7-13.04-2.1c-4.05-1.4-7.55-3.43-10.52-6.07
		c-2.96-2.65-5.29-5.91-6.97-9.79c-1.68-3.89-2.52-8.31-2.52-13.28c0-4.88,0.86-9.27,2.58-13.16c1.72-3.88,4.02-7.17,6.91-9.85
		s6.19-4.73,9.92-6.13c3.73-1.4,7.59-2.1,11.59-2.1c4.57,0,8.61,0.72,12.14,2.17c3.53,1.44,6.47,3.44,8.84,6.01
		c2.36,2.56,4.15,5.58,5.34,9.07c1.2,3.49,1.8,7.27,1.8,11.35c0,1.6-0.1,3.15-0.3,4.63c-0.2,1.48-0.38,2.58-0.54,3.3H89.85
		c0.88,4.33,2.85,7.5,5.89,9.5c3.04,2,7.01,3,11.9,3c2.72,0,5.31-0.36,7.75-1.08c2.44-0.72,4.99-1.76,7.63-3.12l5.89,10.7
		c-3.45,2.16-7.25,3.86-11.42,5.1C113.33,191.34,109.24,191.96,105.24,191.96z M103.79,142.93c-3.53,0-6.47,0.92-8.83,2.76
		c-2.37,1.84-3.99,4.65-4.87,8.41h25.48C114.69,146.66,110.77,142.93,103.79,142.93z"/>
	<path id="r" class="st1" d="M174.14,200.06V36.03h50.53c7.58,0,14.7,0.85,21.34,2.52c6.63,1.68,12.46,4.49,17.5,8.44
		c5.03,3.94,9,9.18,11.92,15.72c2.92,6.53,4.38,14.67,4.38,24.39c0,12.08-2.34,22.02-7.01,29.82c-4.66,7.79-10.8,13.63-18.37,17.48
		l32.15,65.66h-36.09l-27.34-59.12H206.3v59.12H174.14z M206.3,111.51h15.75c17.36,0,26.04-8.13,26.04-24.4
		c0-8.05-2.19-13.67-6.56-16.85c-4.38-3.18-10.87-4.78-19.48-4.78H206.3V111.51z"/>
	<path id="d" class="st1" d="M337.65,130.16c4.07,2.56,7.03,6.06,8.88,10.47v-37.52h22.67v98.11h-22.67v-13.39
		c-1.86,4.42-4.82,7.91-8.88,10.47c-4.07,2.56-8.93,3.84-14.58,3.84c-6.1,0-11.56-1.52-16.37-4.57c-4.82-3.05-8.62-7.44-11.4-13.19
		c-2.78-5.74-4.18-12.46-4.18-20.15c0-7.78,1.39-14.52,4.18-20.22c2.79-5.7,6.58-10.07,11.4-13.12c4.82-3.05,10.28-4.57,16.37-4.57
		C328.72,126.32,333.59,127.6,337.65,130.16z M318.63,150.98c-2.96,3.18-4.44,7.6-4.44,13.26s1.48,10.08,4.44,13.26
		c2.96,3.18,6.87,4.77,11.73,4.77c4.77,0,8.69-1.63,11.73-4.91c3.05-3.27,4.57-7.64,4.57-13.12c0-5.57-1.52-9.97-4.57-13.19
		c-3.05-3.23-6.96-4.84-11.73-4.84C325.5,146.2,321.59,147.8,318.63,150.98z"/>
	<path id="e_1_" class="st1" d="M453.46,168.35h-51.31c0.27,5.57,1.68,9.57,4.24,12c2.56,2.43,5.83,3.65,9.81,3.65
		c3.36,0,6.14-0.84,8.35-2.52c2.21-1.68,3.67-3.84,4.38-6.5h24c-0.97,5.21-3.09,9.88-6.36,13.99c-3.27,4.11-7.42,7.34-12.46,9.68
		c-5.04,2.34-10.65,3.51-16.84,3.51c-7.25,0-13.68-1.52-19.29-4.57c-5.61-3.05-10.01-7.44-13.19-13.19
		c-3.18-5.74-4.77-12.46-4.77-20.15c0-7.78,1.57-14.52,4.71-20.22c3.14-5.7,7.53-10.07,13.19-13.12c5.66-3.05,12.11-4.57,19.36-4.57
		c7.34,0,13.79,1.5,19.36,4.51c5.57,3.01,9.88,7.23,12.93,12.66c3.05,5.43,4.57,11.69,4.57,18.76
		C454.12,164.1,453.9,166.14,453.46,168.35z M427.27,147.86c-2.7-2.43-6.03-3.65-10.01-3.65c-4.16,0-7.6,1.24-10.34,3.72
		c-2.74,2.47-4.29,6.1-4.64,10.87h28.9C431.27,153.94,429.97,150.29,427.27,147.86z"/>
	<path id="v" class="st1" d="M498.13,179.09l16.04-51.84h24.13l-26.25,73.98h-28.11l-26.25-73.98h24.13L498.13,179.09z"/>
	<path id="s" class="st1" d="M594.1,133.35c5.61,4.69,9.12,10.87,10.54,18.56h-21.21c-0.62-3.01-2.01-5.37-4.18-7.1
		c-2.17-1.72-4.88-2.58-8.15-2.58c-2.56,0-4.51,0.55-5.83,1.65c-1.33,1.11-1.99,2.68-1.99,4.71c0,2.3,1.21,4.02,3.65,5.17
		c2.43,1.15,6.25,2.3,11.47,3.45c5.66,1.33,10.29,2.68,13.92,4.05c3.62,1.37,6.76,3.6,9.41,6.69c2.65,3.1,3.98,7.25,3.98,12.46
		c0,4.24-1.15,8-3.45,11.27c-2.3,3.27-5.61,5.83-9.94,7.69c-4.33,1.86-9.46,2.78-15.38,2.78c-9.99,0-17.99-2.21-24-6.63
		c-6.01-4.42-9.68-10.74-11-18.96h21.88c0.35,3.18,1.7,5.61,4.04,7.29c2.34,1.68,5.37,2.52,9.08,2.52c2.56,0,4.51-0.6,5.83-1.79
		c1.33-1.19,1.99-2.76,1.99-4.71c0-2.56-1.22-4.39-3.65-5.5c-2.43-1.1-6.39-2.27-11.86-3.51c-5.48-1.15-9.99-2.38-13.52-3.71
		s-6.59-3.47-9.15-6.43c-2.56-2.96-3.84-7-3.84-12.13c0-6.63,2.52-12,7.56-16.11c5.04-4.11,12.15-6.16,21.35-6.16
		C580.99,126.32,588.48,128.66,594.1,133.35z"/>
</g>
</svg>
